Coordinates
version=1
nRows=9
nColumns=38
inDegrees=yes

Units are S.I. units (second, meters, Newtons, ...)
Angles are in degrees.

endheader
time	pelvis_tilt	pelvis_list	pelvis_rotation	pelvis_tx	pelvis_ty	pelvis_tz	hip_flexion_r	hip_adduction_r	hip_rotation_r	knee_angle_r	ankle_angle_r	subtalar_angle_r	mtp_angle_r	hip_flexion_l	hip_adduction_l	hip_rotation_l	knee_angle_l	ankle_angle_l	subtalar_angle_l	mtp_angle_l	lumbar_extension	lumbar_bending	lumbar_rotation	arm_flex_r	arm_add_r	arm_rot_r	elbow_flex_r	pro_sup_r	wrist_flex_r	wrist_dev_r	arm_flex_l	arm_add_l	arm_rot_l	elbow_flex_l	pro_sup_l	wrist_flex_l	wrist_dev_l
      0.59000000	     -5.71481215	      1.02031319	      1.19851552	      0.00506376	      0.87950353	      2.57945789	     21.58855529	      0.39450558	     -0.10703744	    -14.82637546	     -2.31217748	      0.00000000	      0.00000000	      0.85198519	     -1.40850845	     -1.07120417	    -57.82966235	    -21.40593444	      0.00000000	      0.00000000	      1.27475235	     -0.82602866	     -7.96152027	    -25.46731484	    -25.11129624	      4.05527875	    115.86137844	     82.94186138	      0.00000000	      0.00000000	     -1.47618825	    -16.80540179	     17.94793190	    125.78007317	    100.00802736	      0.00000000	      0.00000000
      0.60000000	     -4.70436770	      0.24688907	      1.11207291	      0.00160480	      0.87185952	      2.58126690	     22.06476346	      1.74294235	      0.40202370	    -20.52290596	      1.47256898	      0.00000000	      0.00000000	      1.89930341	     -2.55791325	     -0.62401657	    -62.24583472	    -19.46926045	      0.00000000	      0.00000000	     -0.46041995	      0.08898689	     -7.24306567	    -22.54639174	    -24.68395744	      4.76686290	    113.94915619	     81.81993888	      0.00000000	      0.00000000	     -1.98499300	    -16.98169009	     18.19656451	    125.79621796	     99.82978511	      0.00000000	      0.00000000
      0.61000000	     -3.57491231	     -0.65303178	      1.01885001	     -0.00186509	      0.86323230	      2.58367521	     22.47959180	      3.30268662	      0.92597354	    -26.18770420	      5.25420840	      0.00000000	      0.00000000	      3.05936499	     -3.86452893	     -0.23015543	    -66.85897102	    -17.39770211	      0.00000000	      0.00000000	     -2.25571171	      1.10475676	     -6.38184119	    -19.35996743	    -24.27940359	      5.60095554	    111.69224215	     80.62940447	      0.00000000	      0.00000000	     -2.50577629	    -17.06511451	     18.26018579	    125.53151529	     99.69202210	      0.00000000	      0.00000000
      0.62000000	     -2.44928630	     -1.67115584	      0.88309553	     -0.00560426	      0.85398643	      2.58634031	     22.75422947	      5.05490038	      1.43228759	    -31.48965091	      8.90337316	      0.00000000	      0.00000000	      4.43640874	     -5.31333514	      0.08496833	    -71.51874191	    -15.21397043	      0.00000000	      0.00000000	     -3.98435293	      2.23865673	     -5.34032110	    -15.92182480	    -23.91422821	      6.58022208	    109.04560155	     79.42299741	      0.00000000	      0.00000000	     -3.09959741	    -17.01423006	     18.12199497	    124.86908541	     99.63818363	      0.00000000	      0.00000000
      0.63000000	     -1.52884623	     -2.77871862	      0.65315439	     -0.00971532	      0.84479778	      2.58874661	     22.79907770	      6.90689036	      1.87340046	    -35.97765106	     12.26022396	      0.00000000	      0.00000000	      6.16723454	     -6.84142662	      0.30858236	    -75.98428617	    -12.97084334	      0.00000000	      0.00000000	     -5.46022745	      3.49158557	     -4.09618350	    -12.29746364	    -23.59864102	      7.71364106	    106.02519094	     78.29383204	      0.00000000	      0.00000000	     -3.85758348	    -16.79717691	     17.80645390	    123.70745775	     99.72143805	      0.00000000	      0.00000000
      0.64000000	     -1.01627571	     -3.92419849	      0.29184999	     -0.01384047	      0.83657061	      2.59044760	     22.55035758	      8.68051672	      2.20090906	    -39.23322348	     15.19044368	      0.00000000	      0.00000000	      8.35634687	     -8.32828413	      0.46612288	    -79.98974175	    -10.74562663	      0.00000000	      0.00000000	     -6.51430385	      4.81749753	     -2.66941848	     -8.60341086	    -23.31665943	      8.98238885	    102.76105187	     77.36272474	      0.00000000	      0.00000000	     -4.85662203	    -16.42212603	     17.37807313	    122.02654188	     99.98036653	      0.00000000	      0.00000000
      0.65000000	     -0.99277153	     -5.01054794	     -0.17293322	     -0.01753888	      0.83012082	      2.59134297	     21.97019894	     10.16912154	      2.38053729	    -41.05598864	     17.62763663	      0.00000000	      0.00000000	     10.99822602	     -9.61275853	      0.62811266	    -83.33182298	     -8.62376478	      0.00000000	      0.00000000	     -7.08520451	      6.09927146	     -1.13418795	     -4.97789479	    -23.01299131	     10.33076522	     99.51467810	     76.75087278	      0.00000000	      0.00000000	     -6.10251729	    -15.95304763	     16.90329952	    119.93228015	    100.40949247	      0.00000000	      0.00000000
      0.66000000	     -1.33946977	     -5.89259087	     -0.62272068	     -0.02081069	      0.82564644	      2.59181167	     21.02356284	     11.21099103	      2.40422534	    -41.56681116	     19.58546239	      0.00000000	      0.00000000	     13.94668453	    -10.52666225	      0.88213176	    -85.92092079	     -6.67955382	      0.00000000	      0.00000000	     -7.25250454	      7.16554957	      0.38962374	     -1.54683297	    -22.60660713	     11.66106851	     96.63897864	     76.54638847	      0.00000000	      0.00000000	     -7.51930103	    -15.49608698	     16.41566638	    117.65830582	    100.93651678	      0.00000000	      0.00000000
      0.67000000	     -1.79871979	     -6.42871513	     -0.89069184	     -0.02390887	      0.82291286	      2.59225497	     19.67323286	     11.71954521	      2.29007113	    -41.13745561	     21.13512891	      0.00000000	      0.00000000	     16.96402208	    -10.93120605	      1.28070009	    -87.76566807	     -4.96049588	      0.00000000	      0.00000000	     -7.18517673	      7.85574590	      1.76086755	      1.59025243	    -22.03089332	     12.84353746	     94.48543021	     76.77669828	      0.00000000	      0.00000000	     -9.00586278	    -15.16029339	     15.91230260	    115.51111483	    101.42024018	      0.00000000	      0.00000000
